<svg xmlns="http://www.w3.org/2000/svg" xmlns:xlink="http://www.w3.org/1999/xlink" width="1888" zoomAndPan="magnify" viewBox="0 0 1416 1259.250001" height="1679" preserveAspectRatio="xMidYMid meet" version="1.2"><defs><clipPath id="01a01af96a"><path d="M 0.421875 20.875 L 1415.578125 20.875 L 1415.578125 1236.980469 L 0.421875 1236.980469 Z M 0.421875 20.875 "/></clipPath><clipPath id="2983b636ae"><path d="M 1415.523438 628.929688 L 1061.746094 1236.980469 L 354.195312 1236.980469 L 0.421875 628.929688 L 354.195312 20.875 L 1061.746094 20.875 Z M 1415.523438 628.929688 "/></clipPath><clipPath id="b2c4cc76c1"><path d="M 0.425781 20.875 L 1415.148438 20.875 L 1415.148438 1236.652344 L 0.425781 1236.652344 Z M 0.425781 20.875 "/></clipPath><clipPath id="6fed556554"><path d="M 1415.148438 628.765625 L 1061.46875 1236.652344 L 354.105469 1236.652344 L 0.425781 628.765625 L 354.105469 20.875 L 1061.46875 20.875 Z M 1415.148438 628.765625 "/></clipPath><clipPath id="6c7b92fbb7"><path d="M 93 48 L 1333 48 L 1333 1210 L 93 1210 Z M 93 48 "/></clipPath><clipPath id="c4a586a688"><path d="M 10.425781 192.5625 L 1250.492188 -0.0703125 L 1415.976562 1065.21875 L 175.914062 1257.855469 Z M 10.425781 192.5625 "/></clipPath><clipPath id="31d9101a1c"><path d="M 1332.78125 532.644531 L 1105.621094 1113.433594 L 485.816406 1209.714844 L 93.167969 725.210938 L 320.328125 144.421875 L 940.136719 48.140625 Z M 1332.78125 532.644531 "/></clipPath><clipPath id="1f3214deb6"><path d="M 93 48 L 1333 48 L 1333 1210 L 93 1210 Z M 93 48 "/></clipPath><clipPath id="dfa7785ef7"><path d="M 10.425781 192.5625 L 1250.308594 -0.0429688 L 1415.761719 1065.042969 L 175.878906 1257.648438 Z M 10.425781 192.5625 "/></clipPath><clipPath id="ffd661f8a5"><path d="M 10.429688 192.5625 L 1249.800781 0.0351562 L 1415.253906 1065.121094 L 175.882812 1257.648438 Z M 10.429688 192.5625 "/></clipPath><clipPath id="1d97268898"><path d="M 1332.527344 532.578125 L 1105.410156 1113.25 L 485.726562 1209.515625 L 93.15625 725.105469 L 320.273438 144.433594 L 939.957031 48.167969 Z M 1332.527344 532.578125 "/></clipPath><clipPath id="92709d996c"><path d="M 185 101 L 1241 101 L 1241 1170 L 185 1170 Z M 185 101 "/></clipPath><clipPath id="f8a0b94883"><path d="M 46.917969 342.75 L 1102.808594 20.757812 L 1379.417969 927.828125 L 323.53125 1249.820312 Z M 46.917969 342.75 "/></clipPath><clipPath id="b67e8984ec"><path d="M 1240.726562 474.410156 L 1115.15625 1008.417969 L 587.40625 1169.351562 L 185.226562 796.285156 L 310.796875 262.28125 L 838.546875 101.34375 Z M 1240.726562 474.410156 "/></clipPath><clipPath id="caa8dc7710"><path d="M 185 101 L 1241 101 L 1241 1170 L 185 1170 Z M 185 101 "/></clipPath><clipPath id="82c20aac51"><path d="M 46.917969 342.75 L 1102.28125 20.917969 L 1378.855469 927.871094 L 323.492188 1249.703125 Z M 46.917969 342.75 "/></clipPath><clipPath id="8fdedbdf09"><path d="M 46.921875 342.75 L 1102.28125 20.917969 L 1378.851562 927.867188 L 323.496094 1249.699219 Z M 46.921875 342.75 "/></clipPath><clipPath id="c6eadffad0"><path d="M 1240.566406 474.394531 L 1115.011719 1008.324219 L 587.335938 1169.238281 L 185.207031 796.222656 L 310.761719 262.292969 L 838.441406 101.375 Z M 1240.566406 474.394531 "/></clipPath><clipPath id="bf414b7e13"><path d="M 304 163 L 1122 163 L 1122 1095 L 304 1095 Z M 304 163 "/></clipPath><clipPath id="d8e4cf7514"><path d="M 104.210938 526.730469 L 905.859375 42.28125 L 1322.03125 730.941406 L 520.386719 1215.394531 Z M 104.210938 526.730469 "/></clipPath><clipPath id="e67b5e0b40"><path d="M 1113.652344 386.789062 L 1121.398438 852.1875 L 720.722656 1094.328125 L 312.296875 871.0625 L 304.550781 405.664062 L 705.226562 163.527344 Z M 1113.652344 386.789062 "/></clipPath><clipPath id="7eec2abbcd"><path d="M 304 163 L 1122 163 L 1122 1095 L 304 1095 Z M 304 163 "/></clipPath><clipPath id="f3e2b1efd1"><path d="M 104.210938 526.730469 L 905.457031 42.523438 L 1321.824219 731.503906 L 520.578125 1215.714844 Z M 104.210938 526.730469 "/></clipPath><clipPath id="bc77c5f955"><path d="M 104.210938 526.734375 L 905.460938 42.523438 L 1321.578125 731.09375 L 520.332031 1215.304688 Z M 104.210938 526.734375 "/></clipPath><clipPath id="934a5369e5"><path d="M 1113.519531 386.808594 L 1121.265625 852.148438 L 720.640625 1094.253906 L 312.273438 871.019531 L 304.523438 405.679688 L 705.148438 163.578125 Z M 1113.519531 386.808594 "/></clipPath><clipPath id="45ec2aa7a0"><path d="M 334 254 L 1082 254 L 1082 1017 L 334 1017 Z M 334 254 "/></clipPath><clipPath id="9a1f8866a0"><path d="M 190.867188 654.820312 L 766.699219 120.996094 L 1225.289062 615.671875 L 649.453125 1149.5 Z M 190.867188 654.820312 "/></clipPath><clipPath id="7af2fc3bb8"><path d="M 995.785156 368.53125 L 1081.171875 749.277344 L 793.359375 1016.089844 L 420.160156 902.160156 L 334.773438 521.414062 L 622.582031 254.601562 Z M 995.785156 368.53125 "/></clipPath><clipPath id="e93716bf69"><path d="M 334 254 L 1082 254 L 1082 1017 L 334 1017 Z M 334 254 "/></clipPath><clipPath id="a36f005886"><path d="M 190.867188 654.820312 L 766.386719 121.289062 L 1225.011719 616.003906 L 649.492188 1149.539062 Z M 190.867188 654.820312 "/></clipPath><clipPath id="b132b50751"><path d="M 190.867188 654.824219 L 766.390625 121.289062 L 1224.894531 615.878906 L 649.375 1149.414062 Z M 190.867188 654.824219 "/></clipPath><clipPath id="eada3416c1"><path d="M 995.644531 368.585938 L 1081.015625 749.261719 L 793.253906 1016.03125 L 420.121094 902.117188 L 334.75 521.441406 L 622.507812 254.671875 Z M 995.644531 368.585938 "/></clipPath><clipPath id="4804b809d7"><path d="M 388 341 L 1028 341 L 1028 930 L 388 930 Z M 388 341 "/></clipPath><clipPath id="0f791451ee"><path d="M 293.523438 733.511719 L 673.394531 210.65625 L 1122.5625 536.992188 L 742.6875 1059.847656 Z M 293.523438 733.511719 "/></clipPath><clipPath id="15991eaea4"><path d="M 897.839844 374.015625 L 1027.488281 667.847656 L 837.621094 929.183594 L 518.105469 896.679688 L 388.457031 602.847656 L 578.324219 341.515625 Z M 897.839844 374.015625 "/></clipPath><clipPath id="9ff9ecb481"><path d="M 388 341 L 1028 341 L 1028 930 L 388 930 Z M 388 341 "/></clipPath><clipPath id="9629b3eaf4"><path d="M 293.523438 733.511719 L 673.296875 210.792969 L 1122.640625 537.257812 L 742.867188 1059.980469 Z M 293.523438 733.511719 "/></clipPath><clipPath id="0fa08c13ad"><path d="M 293.523438 733.511719 L 673.257812 210.851562 L 1122.417969 537.183594 L 742.683594 1059.847656 Z M 293.523438 733.511719 "/></clipPath><clipPath id="8e0257fcbf"><path d="M 897.835938 374.019531 L 1027.484375 667.851562 L 837.617188 929.183594 L 518.105469 896.679688 L 388.457031 602.847656 L 578.324219 341.515625 Z M 897.835938 374.019531 "/></clipPath><clipPath id="0c55c48282"><path d="M 455 401 L 961 401 L 961 870 L 455 870 Z M 455 401 "/></clipPath><clipPath id="55b492285f"><path d="M 403.835938 780.5 L 610.292969 312.667969 L 1012.1875 490.027344 L 805.730469 957.855469 Z M 403.835938 780.5 "/></clipPath><clipPath id="726606e00e"><path d="M 811.164062 401.519531 L 960.515625 607.113281 L 857.324219 840.941406 L 604.785156 869.179688 L 455.433594 663.585938 L 558.621094 429.753906 Z M 811.164062 401.519531 "/></clipPath><clipPath id="f9cc27d2c5"><path d="M 455 401 L 961 401 L 961 870 L 455 870 Z M 455 401 "/></clipPath><clipPath id="6d16f88307"><path d="M 403.835938 780.5 L 610.226562 312.820312 L 1012.074219 490.15625 L 805.683594 957.835938 Z M 403.835938 780.5 "/></clipPath><clipPath id="992928657c"><path d="M 403.835938 780.496094 L 610.195312 312.890625 L 1012.042969 490.230469 L 805.6875 957.835938 Z M 403.835938 780.496094 "/></clipPath><clipPath id="2baa8a9c88"><path d="M 811.117188 401.5625 L 960.453125 607.128906 L 857.273438 840.933594 L 604.761719 869.164062 L 455.425781 663.597656 L 558.605469 429.792969 Z M 811.117188 401.5625 "/></clipPath><clipPath id="2cf3198159"><path d="M 532 442 L 894 442 L 894 829 L 532 829 Z M 532 442 "/></clipPath><clipPath id="357927382b"><path d="M 517.367188 802.484375 L 577.179688 416.683594 L 908.605469 468.066406 L 848.792969 853.867188 Z M 517.367188 802.484375 "/></clipPath><clipPath id="9508cb4d9f"><path d="M 742.871094 442.515625 L 893.636719 564.621094 L 863.738281 757.449219 L 683.082031 828.175781 L 532.316406 706.070312 L 562.210938 513.242188 Z M 742.871094 442.515625 "/></clipPath><clipPath id="8d56ab819a"><path d="M 532 442 L 894 442 L 894 829 L 532 829 Z M 532 442 "/></clipPath><clipPath id="c19ded9787"><path d="M 517.367188 802.484375 L 577.199219 416.574219 L 908.292969 467.90625 L 848.464844 853.8125 Z M 517.367188 802.484375 "/></clipPath><clipPath id="49afaed7b7"><path d="M 517.367188 802.480469 L 577.101562 417.207031 L 908.195312 468.539062 L 848.464844 853.8125 Z M 517.367188 802.480469 "/></clipPath><clipPath id="16b3b66337"><path d="M 742.648438 442.875 L 893.261719 564.859375 L 863.394531 757.496094 L 682.914062 828.148438 L 532.300781 706.164062 L 562.167969 513.527344 Z M 742.648438 442.875 "/></clipPath><clipPath id="1f359d57b3"><path d="M 575 495 L 851 495 L 851 776 L 575 776 Z M 575 495 "/></clipPath><clipPath id="4f1f17d00a"><path d="M 627.097656 805.507812 L 557.636719 524.742188 L 798.828125 465.070312 L 868.292969 745.835938 Z M 627.097656 805.507812 "/></clipPath><clipPath id="efbf7d13ee"><path d="M 678.257812 495.007812 L 816.214844 535.339844 L 850.933594 675.667969 L 747.695312 775.671875 L 609.738281 735.339844 L 575.019531 595.011719 Z M 678.257812 495.007812 "/></clipPath><clipPath id="fbcae48267"><path d="M 575 495 L 851 495 L 851 776 L 575 776 Z M 575 495 "/></clipPath><clipPath id="930a00c7df"><path d="M 627.097656 805.507812 L 557.613281 524.644531 L 798.453125 465.0625 L 867.9375 745.921875 Z M 627.097656 805.507812 "/></clipPath><clipPath id="a60d231c08"><path d="M 627.097656 805.503906 L 557.761719 525.25 L 798.605469 465.667969 L 867.9375 745.917969 Z M 627.097656 805.503906 "/></clipPath><clipPath id="792bf3b02b"><path d="M 678.183594 495.460938 L 815.9375 535.730469 L 850.605469 675.855469 L 747.519531 775.710938 L 609.765625 735.441406 L 575.097656 595.3125 Z M 678.183594 495.460938 "/></clipPath></defs><g id="94b9c79444"><g clip-rule="nonzero" clip-path="url(#01a01af96a)"><g clip-rule="nonzero" clip-path="url(#2983b636ae)"><path style=" stroke:none;fill-rule:nonzero;fill:#004aad;fill-opacity:1;" d="M 0.421875 20.875 L 1416.042969 20.875 L 1416.042969 1236.980469 L 0.421875 1236.980469 Z M 0.421875 20.875 "/></g></g><g clip-rule="nonzero" clip-path="url(#b2c4cc76c1)"><g clip-rule="nonzero" clip-path="url(#6fed556554)"><path style="fill:none;stroke-width:100;stroke-linecap:butt;stroke-linejoin:miter;stroke:#004aad;stroke-opacity:1;stroke-miterlimit:4;" d="M 1887.910872 811.212585 L 1415.934311 1622.421973 L 471.975978 1622.421973 L -0.000582457 811.212585 L 471.975978 -0.00201471 L 1415.934311 -0.00201471 Z M 1887.910872 811.212585 " transform="matrix(0.749359,0,0,0.749359,0.426218,20.87651)"/></g></g><g clip-rule="nonzero" clip-path="url(#6c7b92fbb7)"><g clip-rule="nonzero" clip-path="url(#c4a586a688)"><g clip-rule="nonzero" clip-path="url(#31d9101a1c)"><path style=" stroke:none;fill-rule:nonzero;fill:#5e17eb;fill-opacity:1;" d="M 10.425781 192.5625 L 1250.492188 -0.0703125 L 1415.976562 1065.21875 L 175.914062 1257.855469 Z M 10.425781 192.5625 "/></g></g></g><g clip-rule="nonzero" clip-path="url(#1f3214deb6)"><g clip-rule="nonzero" clip-path="url(#dfa7785ef7)"><g clip-rule="nonzero" clip-path="url(#ffd661f8a5)"><g clip-rule="nonzero" clip-path="url(#1d97268898)"><path style="fill:none;stroke-width:100;stroke-linecap:butt;stroke-linejoin:miter;stroke:#5e17eb;stroke-opacity:1;stroke-miterlimit:4;" d="M 1673.620003 719.132741 L 1255.213574 1438.26825 L 418.406752 1438.266239 L 0.000408462 719.13307 L 418.406038 0.00271192 L 1255.21366 -0.000427739 Z M 1673.620003 719.132741 " transform="matrix(0.740533,-0.115036,0.115036,0.740533,10.429499,192.563492)"/></g></g></g></g><g clip-rule="nonzero" clip-path="url(#92709d996c)"><g clip-rule="nonzero" clip-path="url(#f8a0b94883)"><g clip-rule="nonzero" clip-path="url(#b67e8984ec)"><path style=" stroke:none;fill-rule:nonzero;fill:#5271ff;fill-opacity:1;" d="M 46.917969 342.75 L 1102.808594 20.757812 L 1379.417969 927.828125 L 323.53125 1249.820312 Z M 46.917969 342.75 "/></g></g></g><g clip-rule="nonzero" clip-path="url(#caa8dc7710)"><g clip-rule="nonzero" clip-path="url(#82c20aac51)"><g clip-rule="nonzero" clip-path="url(#8fdedbdf09)"><g clip-rule="nonzero" clip-path="url(#c6eadffad0)"><path style="fill:none;stroke-width:100;stroke-linecap:butt;stroke-linejoin:miter;stroke:#5271ff;stroke-opacity:1;stroke-miterlimit:4;" d="M 1472.18145 632.580058 L 1104.134786 1265.154843 L 368.048556 1265.154739 L -0.000981007 632.576809 L 368.045683 0.00202379 L 1104.138419 -0.00133679 Z M 1472.18145 632.580058 " transform="matrix(0.716867,-0.218608,0.218608,0.716867,46.921556,342.749148)"/></g></g></g></g><g clip-rule="nonzero" clip-path="url(#bf414b7e13)"><g clip-rule="nonzero" clip-path="url(#d8e4cf7514)"><g clip-rule="nonzero" clip-path="url(#e67b5e0b40)"><path style=" stroke:none;fill-rule:nonzero;fill:#8c52ff;fill-opacity:1;" d="M 104.210938 526.730469 L 905.859375 42.28125 L 1322.03125 730.941406 L 520.386719 1215.394531 Z M 104.210938 526.730469 "/></g></g></g><g clip-rule="nonzero" clip-path="url(#7eec2abbcd)"><g clip-rule="nonzero" clip-path="url(#f3e2b1efd1)"><g clip-rule="nonzero" clip-path="url(#bc77c5f955)"><g clip-rule="nonzero" clip-path="url(#934a5369e5)"><path style="fill:none;stroke-width:100;stroke-linecap:butt;stroke-linejoin:miter;stroke:#8c52ff;stroke-opacity:1;stroke-miterlimit:4;" d="M 1249.158154 536.746772 L 936.866408 1073.494306 L 312.286293 1073.493396 L 0.00238501 536.747648 L 312.28967 -0.00258181 L 936.867089 0.00278915 Z M 1249.158154 536.746772 " transform="matrix(0.64143,-0.38763,0.38763,0.64143,104.212363,526.73422)"/></g></g></g></g><g clip-rule="nonzero" clip-path="url(#45ec2aa7a0)"><g clip-rule="nonzero" clip-path="url(#9a1f8866a0)"><g clip-rule="nonzero" clip-path="url(#7af2fc3bb8)"><path style=" stroke:none;fill-rule:nonzero;fill:#38b6ff;fill-opacity:1;" d="M 190.867188 654.820312 L 766.699219 120.996094 L 1225.289062 615.671875 L 649.453125 1149.5 Z M 190.867188 654.820312 "/></g></g></g><g clip-rule="nonzero" clip-path="url(#e93716bf69)"><g clip-rule="nonzero" clip-path="url(#a36f005886)"><g clip-rule="nonzero" clip-path="url(#b132b50751)"><g clip-rule="nonzero" clip-path="url(#eada3416c1)"><path style="fill:none;stroke-width:100;stroke-linecap:butt;stroke-linejoin:miter;stroke:#38b6ff;stroke-opacity:1;stroke-miterlimit:4;" d="M 1047.171985 449.959966 L 785.379159 899.912949 L 261.790066 899.91405 L 0.000886009 449.954524 L 261.793712 0.00154137 L 785.378982 -0.00310354 Z M 1047.171985 449.959966 " transform="matrix(0.549596,-0.509501,0.509501,0.549596,190.868534,654.824597)"/></g></g></g></g><g clip-rule="nonzero" clip-path="url(#4804b809d7)"><g clip-rule="nonzero" clip-path="url(#0f791451ee)"><g clip-rule="nonzero" clip-path="url(#15991eaea4)"><path style=" stroke:none;fill-rule:nonzero;fill:#cb6ce6;fill-opacity:1;" d="M 293.523438 733.511719 L 673.398438 210.65625 L 1122.5625 536.992188 L 742.6875 1059.847656 Z M 293.523438 733.511719 "/></g></g></g><g clip-rule="nonzero" clip-path="url(#9ff9ecb481)"><g clip-rule="nonzero" clip-path="url(#9629b3eaf4)"><g clip-rule="nonzero" clip-path="url(#0fa08c13ad)"><g clip-rule="nonzero" clip-path="url(#8e0257fcbf)"><path style="fill:none;stroke-width:100;stroke-linecap:butt;stroke-linejoin:miter;stroke:#cb6ce6;stroke-opacity:1;stroke-miterlimit:4;" d="M 861.903042 370.349692 L 646.427333 740.700003 L 215.473218 740.70036 L 0.00209165 370.351558 L 215.477801 0.00124606 L 646.431915 0.00088962 Z M 861.903042 370.349692 " transform="matrix(0.440575,-0.606403,0.606403,0.440575,293.522246,733.513495)"/></g></g></g></g><g clip-rule="nonzero" clip-path="url(#0c55c48282)"><g clip-rule="nonzero" clip-path="url(#55b492285f)"><g clip-rule="nonzero" clip-path="url(#726606e00e)"><path style=" stroke:none;fill-rule:nonzero;fill:#5ce1e6;fill-opacity:1;" d="M 403.835938 780.5 L 610.292969 312.667969 L 1012.1875 490.027344 L 805.730469 957.855469 Z M 403.835938 780.5 "/></g></g></g><g clip-rule="nonzero" clip-path="url(#f9cc27d2c5)"><g clip-rule="nonzero" clip-path="url(#6d16f88307)"><g clip-rule="nonzero" clip-path="url(#992928657c)"><g clip-rule="nonzero" clip-path="url(#2baa8a9c88)"><path style="fill:none;stroke-width:100;stroke-linecap:butt;stroke-linejoin:miter;stroke:#5ce1e6;stroke-opacity:1;stroke-miterlimit:4;" d="M 681.961242 293.03128 L 511.475081 586.061772 L 170.489733 586.060931 L 0.00218692 293.030158 L 170.488348 -0.000333636 L 511.473696 0.000507373 Z M 681.961242 293.03128 " transform="matrix(0.302591,-0.685674,0.685674,0.302591,403.837764,780.497262)"/></g></g></g></g><g clip-rule="nonzero" clip-path="url(#2cf3198159)"><g clip-rule="nonzero" clip-path="url(#357927382b)"><g clip-rule="nonzero" clip-path="url(#9508cb4d9f)"><path style=" stroke:none;fill-rule:nonzero;fill:#ff66c4;fill-opacity:1;" d="M 517.367188 802.484375 L 577.179688 416.683594 L 908.605469 468.066406 L 848.792969 853.867188 Z M 517.367188 802.484375 "/></g></g></g><g clip-rule="nonzero" clip-path="url(#8d56ab819a)"><g clip-rule="nonzero" clip-path="url(#c19ded9787)"><g clip-rule="nonzero" clip-path="url(#49afaed7b7)"><g clip-rule="nonzero" clip-path="url(#16b3b66337)"><path style="fill:none;stroke-width:100;stroke-linecap:butt;stroke-linejoin:miter;stroke:#ff66c4;stroke-opacity:1;stroke-miterlimit:4;" d="M 520.653127 223.720579 L 390.48914 447.437538 L 130.162 447.435439 L -0.00115391 223.716381 L 130.162833 -0.00057868 L 390.489974 0.00152045 Z M 520.653127 223.720579 " transform="matrix(0.114723,-0.73998,0.73998,0.114723,517.368477,802.482063)"/></g></g></g></g><g clip-rule="nonzero" clip-path="url(#1f359d57b3)"><g clip-rule="nonzero" clip-path="url(#4f1f17d00a)"><g clip-rule="nonzero" clip-path="url(#efbf7d13ee)"><path style=" stroke:none;fill-rule:nonzero;fill:#0cc0df;fill-opacity:1;" d="M 627.097656 805.507812 L 557.636719 524.742188 L 798.828125 465.070312 L 868.292969 745.835938 Z M 627.097656 805.507812 "/></g></g></g><g clip-rule="nonzero" clip-path="url(#fbcae48267)"><g clip-rule="nonzero" clip-path="url(#930a00c7df)"><g clip-rule="nonzero" clip-path="url(#a60d231c08)"><g clip-rule="nonzero" clip-path="url(#792bf3b02b)"><path style="fill:none;stroke-width:100;stroke-linecap:butt;stroke-linejoin:miter;stroke:#0cc0df;stroke-opacity:1;stroke-miterlimit:4;" d="M 385.706599 165.734431 L 289.280713 331.468745 L 96.426853 331.469683 L -0.00112117 165.736308 L 96.424765 0.00199355 L 289.283691 0.00230846 Z M 385.706599 165.734431 " transform="matrix(-0.179759,-0.726587,0.726587,-0.179759,627.097431,805.502776)"/></g></g></g></g></g></svg>